<?xml version="1.0" encoding="UTF-8" standalone="no"?>
<!-- Generated by IcoMoon.io -->

<svg
   xmlns:dc="http://purl.org/dc/elements/1.1/"
   xmlns:cc="http://creativecommons.org/ns#"
   xmlns:rdf="http://www.w3.org/1999/02/22-rdf-syntax-ns#"
   xmlns:svg="http://www.w3.org/2000/svg"
   xmlns="http://www.w3.org/2000/svg"
   xmlns:sodipodi="http://sodipodi.sourceforge.net/DTD/sodipodi-0.dtd"
   xmlns:inkscape="http://www.inkscape.org/namespaces/inkscape"
   version="1.1"
   width="32"
   height="32"
   viewBox="0 0 32 32"
   id="svg6"
   sodipodi:docname="bootstrap.svg"
   inkscape:version="0.92.3 (unknown)">
  <metadata
     id="metadata12">
    <rdf:RDF>
      <cc:Work
         rdf:about="">
        <dc:format>image/svg+xml</dc:format>
        <dc:type
           rdf:resource="http://purl.org/dc/dcmitype/StillImage" />
      </cc:Work>
    </rdf:RDF>
  </metadata>
  <defs
     id="defs10" />
  <sodipodi:namedview
     pagecolor="#ffffff"
     bordercolor="#666666"
     borderopacity="1"
     objecttolerance="10"
     gridtolerance="10"
     guidetolerance="10"
     inkscape:pageopacity="0"
     inkscape:pageshadow="2"
     inkscape:window-width="1855"
     inkscape:window-height="1176"
     id="namedview8"
     showgrid="false"
     inkscape:zoom="7.375"
     inkscape:cx="0.20338983"
     inkscape:cy="16"
     inkscape:window-x="65"
     inkscape:window-y="24"
     inkscape:window-maximized="1"
     inkscape:current-layer="svg6" />
  <title
     id="title2">bootstrap</title>
  <path
     fill="#563d7c"
     d="M26.667 0h-21.333c-2.943 0.008-5.325 2.391-5.333 5.333v21.333c0 2.933 2.4 5.333 5.333 5.333h21.333c2.933 0 5.333-2.4 5.333-5.333v-21.333c0-2.933-2.4-5.333-5.333-5.333zM23.751 22.473c-0.267 0.643-0.689 1.209-1.231 1.645-0.56 0.453-1.269 0.827-2.143 1.093-0.872 0.271-1.909 0.407-3.111 0.407h-8.576v-18.667h9.069c1.677 0 3.021 0.377 4.027 1.147 1.013 0.773 1.517 1.925 1.517 3.48 0 0.94-0.229 1.747-0.691 2.413-0.459 0.663-1.12 1.181-1.973 1.541v0.061c1.139 0.24 2.020 0.78 2.6 1.62s0.877 1.901 0.877 3.183c0 0.717-0.139 1.4-0.4 2.037l0.033 0.036zM20.049 17.873c-0.547-0.5-1.315-0.744-2.307-0.744h-5.763v5.824h5.779c0.987 0 1.76-0.256 2.307-0.773 0.547-0.513 0.827-1.245 0.827-2.187-0.009-0.92-0.28-1.632-0.827-2.12h-0.023zM19.249 14.109c0.528-0.448 0.787-1.089 0.787-1.925 0-0.939-0.233-1.605-0.707-1.987-0.469-0.38-1.147-0.577-2.037-0.577h-5.333v5.151h5.333c0.777 0 1.44-0.227 1.952-0.661z"
     id="path4" />
  <path
     style="opacity:1;fill:#9966ff;fill-opacity:1;stroke:none;stroke-width:0.13559322;stroke-opacity:1;paint-order:stroke markers fill"
     d="M 4.088227,31.763371 C 2.5015303,31.33611 1.2921965,30.353707 0.58842281,28.920304 L 0.18983051,28.108475 V 15.972881 3.8372881 L 0.61646096,3.0215252 C 1.1414411,2.0177071 2.1827591,1.0216564 3.2111098,0.53966862 L 3.9864407,0.17627119 H 16.054237 28.122034 l 0.829782,0.43370739 c 1.542871,0.80642192 2.589332,2.18698152 2.897135,3.82208782 0.185598,0.9859327 0.186383,22.0934416 8.13e-4,23.0717096 -0.418051,2.204376 -2.027801,3.869508 -4.175128,4.318773 -0.494239,0.103405 -4.176677,0.147547 -11.79661,0.141409 -9.0986829,-0.0073 -11.2052491,-0.04317 -11.7898451,-0.200587 z m 15.799117,-6.351032 c 1.525307,-0.389704 2.719468,-1.119668 3.440587,-2.10315 1.038601,-1.416473 1.063085,-4.372916 0.04951,-5.978519 -0.51253,-0.8119 -1.139314,-1.271229 -2.293078,-1.680448 -0.219779,-0.07795 -0.16836,-0.148364 0.34704,-0.47522 0.774638,-0.491262 1.40709,-1.260946 1.669897,-2.03224 0.263978,-0.774733 0.266126,-2.345874 0.0044,-3.2271615 C 22.8484,9.0491325 21.993958,8.0671467 21.105684,7.6170244 19.828693,6.9699243 19.039414,6.8930376 13.647458,6.89049 L 8.6644068,6.88814 v 9.43905 9.439051 l 5.1864402,-0.06836 c 4.140786,-0.05457 5.357824,-0.112143 6.036497,-0.28554 z"
     id="path822"
     inkscape:connector-curvature="0" />
  <path
     style="opacity:1;fill:#9966ff;fill-opacity:1;stroke:none;stroke-width:0.13559322;stroke-opacity:1;paint-order:stroke markers fill"
     d="M 12.054237,12.244068 V 9.7355932 l 3.152543,2.107e-4 c 3.529493,2.359e-4 3.820881,0.062105 4.404077,0.9350951 0.245926,0.36813 0.307787,0.649258 0.307787,1.398745 0,1.007334 -0.107084,1.318933 -0.655159,1.906425 -0.59692,0.639849 -1.380658,0.776473 -4.454197,0.776473 h -2.755051 z"
     id="path824"
     inkscape:connector-curvature="0" />
  <path
     style="opacity:1;fill:#3333ff;fill-opacity:1;stroke:none;stroke-width:0.13559322;stroke-opacity:1;paint-order:stroke markers fill"
     d="M 12.054237,20.049139 V 17.19322 l 3.152543,7.57e-4 c 1.733898,4.15e-4 3.373279,0.06207 3.643068,0.13701 1.293974,0.359431 1.95463,1.282195 1.942892,2.713715 -0.0095,1.163537 -0.426867,1.955823 -1.28258,2.434949 -0.598382,0.335042 -0.6652,0.34139 -4.032194,0.383048 l -3.423729,0.04236 z"
     id="path826"
     inkscape:connector-curvature="0" />
  <path
     style="opacity:1;fill:#3333ff;fill-opacity:1;stroke:none;stroke-width:0.13559322;stroke-opacity:1;paint-order:stroke markers fill"
     d="M 8.9355932,31.842754 3.9864407,31.769492 3.2114751,31.388984 C 2.20679,30.895685 1.3285119,30.072137 0.73369283,29.065604 L 0.25762712,28.260022 V 15.998595 3.7371689 L 0.72883593,2.9614757 C 1.3114266,2.0024279 2.306078,1.0566485 3.2181653,0.59445889 L 3.9096289,0.2440678 H 16.051783 28.193939 l 0.777607,0.43638713 c 1.014583,0.56937627 1.899403,1.48584747 2.401516,2.48741867 l 0.40357,0.8050078 0.122019,5.9780717 c 0.07355,3.6033409 0.07216,8.3432919 -0.0035,11.9322039 -0.120504,5.716623 -0.137795,5.985213 -0.433467,6.733339 -0.428808,1.08499 -1.44313,2.15533 -2.567264,2.709048 l -0.901282,0.443948 -4.47793,0.08684 c -4.965519,0.0963 -7.303989,0.09412 -14.5796298,-0.01358 z M 18.223729,25.60875 c 1.861815,-0.129071 2.880152,-0.431898 3.966938,-1.179668 1.4876,-1.02355 2.002704,-2.227748 1.903837,-4.450739 -0.09582,-2.15437 -0.798634,-3.364114 -2.383308,-4.102328 l -0.715921,-0.333509 0.512531,-0.371713 C 22.9295,14.139711 23.364193,13.184988 23.286999,11.263116 23.225512,9.7322519 22.944571,9.0886399 21.942744,8.1835505 20.653733,7.0190052 19.840618,6.8943281 13.511864,6.8908216 l -4.8474572,-0.00269 v 9.4618694 9.46187 l 3.9661012,-0.04516 c 2.181356,-0.02484 4.698306,-0.09592 5.593221,-0.157963 z"
     id="path828"
     inkscape:connector-curvature="0" />
  <path
     style="opacity:1;fill:#3333ff;fill-opacity:1;stroke:none;stroke-width:0.13559322;stroke-opacity:1;paint-order:stroke markers fill"
     d="M 12.054237,12.265322 V 9.7355932 l 2,0.00762 c 1.1,0.00419 2.628982,0.054685 3.397738,0.1122092 1.308638,0.097922 1.423757,0.1306095 1.805935,0.5127876 0.497154,0.497154 0.687964,1.228144 0.574411,2.200558 -0.105853,0.906467 -0.708071,1.647078 -1.542613,1.897113 -0.310922,0.09315 -1.800785,0.201814 -3.394784,0.247591 l -2.840687,0.08158 z"
     id="path830"
     inkscape:connector-curvature="0" />
</svg>
