<?xml version="1.0" encoding="UTF-8" standalone="no"?>
<svg
   xmlns:dc="http://purl.org/dc/elements/1.1/"
   xmlns:cc="http://creativecommons.org/ns#"
   xmlns:rdf="http://www.w3.org/1999/02/22-rdf-syntax-ns#"
   xmlns:svg="http://www.w3.org/2000/svg"
   xmlns="http://www.w3.org/2000/svg"
   xmlns:sodipodi="http://sodipodi.sourceforge.net/DTD/sodipodi-0.dtd"
   xmlns:inkscape="http://www.inkscape.org/namespaces/inkscape"
   viewBox="0 0 472.24313 492.3219"
   version="1.1"
   id="svg4"
   sodipodi:docname="cog-green.svg"
   width="472.24313"
   height="492.3219"
   inkscape:version="0.92.3 (unknown)">
  <metadata
     id="metadata10">
    <rdf:RDF>
      <cc:Work
         rdf:about="">
        <dc:format>image/svg+xml</dc:format>
        <dc:type
           rdf:resource="http://purl.org/dc/dcmitype/StillImage" />
        <dc:title></dc:title>
      </cc:Work>
    </rdf:RDF>
  </metadata>
  <defs
     id="defs8" />
  <sodipodi:namedview
     pagecolor="#ffffff"
     bordercolor="#666666"
     borderopacity="1"
     objecttolerance="10"
     gridtolerance="10"
     guidetolerance="10"
     inkscape:pageopacity="0"
     inkscape:pageshadow="2"
     inkscape:window-width="1855"
     inkscape:window-height="1176"
     id="namedview6"
     showgrid="false"
     fit-margin-top="0"
     fit-margin-left="0"
     fit-margin-right="0"
     fit-margin-bottom="0"
     inkscape:zoom="2.78"
     inkscape:cx="227.84516"
     inkscape:cy="159.79663"
     inkscape:window-x="65"
     inkscape:window-y="24"
     inkscape:window-maximized="1"
     inkscape:current-layer="svg4" />
  <path
     style="opacity:1;fill:#99ff33;fill-opacity:1;stroke:none;stroke-width:2.16949153;stroke-opacity:1;paint-order:stroke markers fill"
     d="m 206.48152,491.74262 c -20.85459,-3.1683 -29.4581,-5.77148 -31.46437,-9.52021 -1.18951,-2.22262 -2.16275,-15.60335 -2.16275,-29.73489 v -25.69377 l -13.61633,-5.93191 c -11.68984,-5.09266 -26.85348,-14.23143 -43.89652,-26.45539 -3.98797,-2.86034 -6.30364,-2.02537 -27.118636,9.77834 -12.51709,7.09814 -24.342481,12.91917 -26.278648,12.93559 C 46.818587,417.24881 -6.4988081,325.15199 0.97235891,311.80176 2.0593869,309.85935 12.592302,302.60785 24.378837,295.6873 l 21.430064,-12.58281 0.07441,-37.0055 0.07441,-37.00549 -20.972616,-12.13152 C -2.4626851,181.08494 -2.3561651,181.23074 2.4209529,166.07598 11.05102,138.69826 43.141981,86.365623 56.779804,77.429778 c 5.762502,-3.775737 7.026773,-3.33003 32.86106,11.584879 10.850646,6.264411 20.298016,11.389833 20.994166,11.389833 0.69614,0 7.53619,-4.383382 15.2001,-9.740832 7.66391,-5.35746 21.37848,-13.27602 30.47682,-17.596801 L 172.8544,65.21089 V 38.669356 c 0,-22.531944 0.57355,-27.056808 3.79661,-29.9524015 12.83823,-11.533846 107.32726,-11.6583268 118.82904,-0.156546 2.47951,2.4795115 3.20486,9.2462245 3.20486,29.8980685 v 26.693214 l 18.98305,9.103683 c 10.44067,5.007026 24.06658,12.938906 30.27978,17.626394 6.21321,4.6875 12.07084,8.506512 13.01695,8.486692 0.94612,-0.0197 11.9557,-5.877442 24.46573,-13.016948 12.51002,-7.139508 23.66043,-12.980923 24.77865,-12.980923 3.25344,0 19.66321,18.067679 29.30462,32.265311 14.3866,21.18518 32.72659,60.48418 32.72945,70.13276 0.001,4.4436 -8.63813,11.05311 -30.37179,23.23558 l -16.27119,9.12056 0.19026,36.91047 0.19027,36.91048 22.58935,13.40734 c 16.06003,9.53203 22.78066,14.74895 23.2512,18.04889 2.49982,17.5316 -44.42309,97.5593 -59.71055,101.83717 -3.49233,0.97725 -11.09039,-2.25642 -27.71416,-11.79496 l -22.90274,-13.14132 -16.76043,11.38677 c -9.21821,6.26271 -23.35024,14.24815 -31.40447,17.74542 l -14.64407,6.35869 v 27.45498 c 0,30.66513 -0.0351,30.74456 -15.27186,34.45411 -10.27813,2.50233 -65.98157,4.70333 -76.93153,3.03978 z m 55.32203,-169.17938 c 23.81772,-7.59157 46.41269,-31.53477 52.08927,-55.19742 1.50806,-6.28629 2.25929,-18.4661 1.71687,-27.83592 -0.78576,-13.57394 -2.29781,-19.16093 -8.16451,-30.16801 -8.7207,-16.36168 -22.24015,-29.27516 -38.75317,-37.01618 -10.62385,-4.98027 -15.13841,-5.77173 -32.92236,-5.77173 -17.78395,0 -22.29851,0.79146 -32.92235,5.77173 -17.23799,8.08086 -30.85443,21.41184 -39.21339,38.3913 -6.5343,13.27307 -7.05036,15.91429 -7.04605,36.06253 0.004,20.15946 0.50075,22.68976 6.82609,34.79275 19.29463,36.91856 59.09978,53.49406 98.3896,40.97095 z"
     id="path817"
     inkscape:connector-curvature="0" />
</svg>
