<?xml version="1.0" encoding="UTF-8" standalone="no"?>
<svg
   xmlns:dc="http://purl.org/dc/elements/1.1/"
   xmlns:cc="http://creativecommons.org/ns#"
   xmlns:rdf="http://www.w3.org/1999/02/22-rdf-syntax-ns#"
   xmlns:svg="http://www.w3.org/2000/svg"
   xmlns="http://www.w3.org/2000/svg"
   xmlns:sodipodi="http://sodipodi.sourceforge.net/DTD/sodipodi-0.dtd"
   xmlns:inkscape="http://www.inkscape.org/namespaces/inkscape"
   viewBox="0 0 472.24313 492.3219"
   version="1.1"
   id="svg4"
   sodipodi:docname="cog-red.svg"
   width="472.24313"
   height="492.3219"
   inkscape:version="0.92.3 (unknown)">
  <metadata
     id="metadata10">
    <rdf:RDF>
      <cc:Work
         rdf:about="">
        <dc:format>image/svg+xml</dc:format>
        <dc:type
           rdf:resource="http://purl.org/dc/dcmitype/StillImage" />
        <dc:title />
      </cc:Work>
    </rdf:RDF>
  </metadata>
  <defs
     id="defs8" />
  <sodipodi:namedview
     pagecolor="#ffffff"
     bordercolor="#666666"
     borderopacity="1"
     objecttolerance="10"
     gridtolerance="10"
     guidetolerance="10"
     inkscape:pageopacity="0"
     inkscape:pageshadow="2"
     inkscape:window-width="1855"
     inkscape:window-height="1176"
     id="namedview6"
     showgrid="false"
     fit-margin-top="0"
     fit-margin-left="0"
     fit-margin-right="0"
     fit-margin-bottom="0"
     inkscape:zoom="6.83"
     inkscape:cx="222.64013"
     inkscape:cy="474.67913"
     inkscape:window-x="65"
     inkscape:window-y="24"
     inkscape:window-maximized="1"
     inkscape:current-layer="svg4" />
  <path
     style="opacity:1;fill:#ff0033;fill-opacity:1;stroke:none;stroke-width:0.35971224;stroke-opacity:1;paint-order:stroke markers fill"
     d="m 208.56458,491.81793 c -4.21021,-0.41824 -15.11187,-2.35299 -20.32374,-3.60694 -7.32904,-1.76335 -10.68645,-3.20141 -12.49647,-5.35249 -1.8494,-2.19787 -2.45376,-10.08838 -2.74185,-35.79712 l -0.2293,-20.46388 -7.73382,-3.37169 c -4.25359,-1.85443 -9.51439,-4.24705 -11.69065,-5.31691 -8.48669,-4.17219 -20.85503,-11.73306 -33.23058,-20.31414 -3.67399,-2.54748 -6.75714,-4.42989 -7.47675,-4.56489 -3.13232,-0.58762 -6.82151,1.10371 -26.64941,12.21759 -7.672636,4.30069 -17.203957,9.14802 -20.982985,10.67133 -3.43381,1.38418 -4.411864,1.28914 -7.422576,-0.72133 C 41.821816,404.67023 7.0644121,346.57211 1.1337431,320.83494 c -0.81878075,-3.55324 -0.84059356,-7.74605 -0.046603,-8.95783 0.3357227,-0.51238 2.1150205,-2.06146 3.9539953,-3.4424 6.1801186,-4.64083 12.1749376,-8.37006 35.6277636,-22.16313 l 5.305755,-3.12042 -0.0064,-37.12949 -0.0064,-37.1295 -5.299349,-3.03526 C 27.473493,198.30277 11.800457,189.07285 8.9845595,187.20165 5.0032247,184.55599 1.7879348,181.57186 0.96159123,179.75548 -0.40006967,176.76243 0.47382289,171.62577 3.9908577,161.94973 9.4503365,146.92965 21.571317,124.10825 34.27254,104.93534 44.990528,88.756181 53.124892,79.296156 58.713474,76.511249 c 4.256583,-2.121147 6.508428,-1.229492 28.628087,11.335713 15.663459,8.897723 20.607049,11.603244 22.359869,12.237068 1.27873,0.4624 1.37739,0.43187 4.13334,-1.279173 1.55283,-0.964086 6.70823,-4.35773 11.45643,-7.541435 12.98517,-8.706658 23.11855,-14.381655 38.93454,-21.804511 l 8.71872,-4.091917 0.004,-17.895683 0.004,-17.895684 h 62.76643 62.76642 l 0.0933,17.850216 0.0933,17.850216 12.06984,5.819216 c 18.66679,8.999787 27.39174,13.980575 38.86124,22.184582 3.84042,2.747015 7.98819,5.520677 9.21727,6.163691 l 2.2347,1.169122 3.16097,-1.559 c 3.91997,-1.93332 8.82641,-4.608323 22.40562,-12.215651 12.00309,-6.724349 22.68755,-12.298363 23.57395,-12.298363 2.60892,0 15.07342,13.097219 24.77964,26.037474 7.01364,9.35049 14.35177,21.72608 22.10051,37.27188 7.8487,15.74635 13.75586,30.39436 14.75219,36.58098 0.55,3.41508 0.10795,4.4608 -3.32284,7.86073 -4.6282,4.58659 -11.95496,9.29273 -32.06331,20.59498 -9.96421,5.60056 -10.80119,6.14594 -10.91964,7.11511 -0.0705,0.5773 -0.0104,17.25163 0.13335,37.05407 l 0.26165,36.00443 5.08245,3.01815 c 32.21014,19.12749 38.04733,23.06696 40.10485,27.06631 0.86615,1.68357 0.87971,1.82508 0.47015,4.90121 -1.01788,7.64514 -5.82835,19.8958 -14.06202,35.81122 -14.30565,27.65245 -32.90615,54.1895 -42.61021,60.79137 -1.96184,1.33468 -2.28734,1.43665 -4.49641,1.4087 -4.51309,-0.0571 -11.13021,-3.25179 -34.21597,-16.51928 -7.81475,-4.49118 -14.3705,-8.17298 -14.56834,-8.18176 -0.19785,-0.009 -6.02518,3.77309 -12.94964,8.40425 -17.38773,11.62906 -25.68795,16.26449 -41.54677,23.20251 l -8.45323,3.69821 -0.22041,24.38935 c -0.23466,25.96647 -0.34177,27.56291 -2.07758,30.96539 -2.27315,4.45572 -9.84734,6.80608 -26.29914,8.16094 -17.59916,1.44932 -53.73888,2.41406 -61.51079,1.64205 z m 40.28777,-165.9961 c 13.73596,-2.35806 23.96557,-6.71157 34.71223,-14.77282 15.75295,-11.81654 28.29094,-30.49222 30.91029,-46.04173 1.76642,-10.48616 1.77053,-27.33525 0.009,-37.23021 -1.61536,-9.07433 -6.96997,-20.23724 -14.49263,-30.21319 -3.54462,-4.70059 -10.01808,-11.39411 -14.26848,-14.75352 -9.40173,-7.43088 -21.65132,-13.56357 -30.57851,-15.30896 -6.61454,-1.29323 -32.24781,-1.27978 -38.9588,0.0204 -4.25765,0.8249 -8.43841,2.36686 -14.64556,5.40161 -13.80843,6.75112 -24.9695,16.6049 -33.28425,29.38571 -2.67116,4.1059 -7.83788,14.49235 -9.27102,18.63715 -2.13466,6.17367 -2.36883,8.66385 -2.38443,25.35593 -0.0155,16.63427 0.19477,19.23903 2.01134,24.90996 1.30141,4.06275 5.39587,12.18791 8.75034,17.36443 13.25802,20.45938 32.73061,33.48886 55.59111,37.19706 5.25409,0.85227 5.39967,0.85989 14.20863,0.74381 5.5469,-0.0731 9.39954,-0.30236 11.69065,-0.69568 z"
     id="path838"
     inkscape:connector-curvature="0" />
  <path
     style="opacity:1;fill:#ff0033;fill-opacity:1;stroke:none;stroke-width:0.39548591;stroke-opacity:1;paint-order:stroke markers fill"
     d="m 172.95246,29.575627 c 0.435,-11.738613 1.17897,-15.852813 3.33877,-18.463565 5.50733,-6.6572093 28.46568,-10.7333495 60.51098,-10.7434227 27.192,-0.00855 47.09136,2.8264882 55.38514,7.8906497 4.67619,2.855272 5.36035,5.251357 5.96237,20.881522 l 0.2554,6.630962 h -62.84113 -62.84113 z"
     id="path818"
     inkscape:connector-curvature="0" />
</svg>
