<?xml version="1.0" encoding="UTF-8" standalone="no"?>
<svg
   xmlns:dc="http://purl.org/dc/elements/1.1/"
   xmlns:cc="http://creativecommons.org/ns#"
   xmlns:rdf="http://www.w3.org/1999/02/22-rdf-syntax-ns#"
   xmlns:svg="http://www.w3.org/2000/svg"
   xmlns="http://www.w3.org/2000/svg"
   xmlns:sodipodi="http://sodipodi.sourceforge.net/DTD/sodipodi-0.dtd"
   xmlns:inkscape="http://www.inkscape.org/namespaces/inkscape"
   viewBox="0 0 640 512"
   version="1.1"
   id="svg4"
   sodipodi:docname="cogs.svg"
   inkscape:version="0.92.3 (unknown)">
  <metadata
     id="metadata10">
    <rdf:RDF>
      <cc:Work
         rdf:about="">
        <dc:format>image/svg+xml</dc:format>
        <dc:type
           rdf:resource="http://purl.org/dc/dcmitype/StillImage" />
      </cc:Work>
    </rdf:RDF>
  </metadata>
  <defs
     id="defs8" />
  <sodipodi:namedview
     pagecolor="#ffffff"
     bordercolor="#666666"
     borderopacity="1"
     objecttolerance="10"
     gridtolerance="10"
     guidetolerance="10"
     inkscape:pageopacity="0"
     inkscape:pageshadow="2"
     inkscape:window-width="1855"
     inkscape:window-height="1176"
     id="namedview6"
     showgrid="false"
     inkscape:zoom="0.36"
     inkscape:cx="36.308121"
     inkscape:cy="226.51204"
     inkscape:window-x="65"
     inkscape:window-y="24"
     inkscape:window-maximized="1"
     inkscape:current-layer="svg4" />
  <path
     style="opacity:1;fill:#ff9900;fill-opacity:1;stroke:#ffffff;stroke-width:2.16949153;stroke-opacity:1;paint-order:stroke markers fill"
     d="m 180.93559,474.50333 c -6.59719,-1.26739 -11.69719,-4.01521 -15.72881,-8.47449 -5.66948,-6.27089 -5.9661,-7.67592 -5.9661,-28.25968 0,-14.0764 -0.82117,-21.66069 -2.34527,-21.66069 -4.10979,0 -33.06436,-15.3291 -43.69625,-23.13361 l -10.25401,-7.52714 -18.173991,9.90664 C 58.991963,409.40661 53.979056,408.61978 37.311835,387.90508 22.833024,369.91024 14.315686,356.77076 7.010665,341.16029 -3.9664142,317.70281 0.2204301,309.40134 30.290297,295.00258 l 15.052076,-7.2076 V 254.48136 221.16772 L 30.290297,213.96013 C -1.2842314,198.84087 -4.5148059,191.15474 9.181891,163.73935 c 10.728574,-21.47438 34.746921,-53.8639 42.593868,-57.4392 9.565013,-4.35811 15.836954,-3.00884 33.57634,7.22323 l 17.027901,9.82168 17.59707,-11.77839 c 9.67839,-6.47812 22.47205,-13.531414 28.43034,-15.673986 l 10.83327,-3.895589 V 70.764978 c 0,-20.149792 0.30726,-21.576004 6.02762,-27.978195 7.56537,-8.467116 17.27789,-10.489341 50.37916,-10.489341 33.10127,0 42.81378,2.022225 50.37915,10.489341 5.69168,6.370078 6.02763,7.891695 6.02763,27.300422 v 20.554342 l 14.23065,6.452486 c 7.82687,3.548867 20.61099,10.912657 28.40916,16.363967 l 14.17852,9.91149 17.04908,-9.8339 c 23.27461,-13.42478 29.94274,-13.35224 42.81062,0.46571 11.94758,12.82971 31.26183,41.65308 37.21034,55.53038 9.10179,21.23365 4.32349,30.09686 -23.53526,43.65524 -16.97076,8.25937 -17.62449,8.85026 -16.32711,14.75721 1.74889,7.96267 1.75058,45.10415 0.002,53.06353 -1.30217,5.92868 -0.65972,6.47995 18.46254,15.84196 22.44274,10.98769 27.11683,16.68441 25.23017,30.75033 -1.4287,10.65183 -15.507,35.35961 -31.88528,55.95945 -20.12346,25.31037 -24.64073,26.36309 -51.14062,11.91799 l -17.94829,-9.7836 -17.54021,11.74033 c -9.6471,6.45717 -22.41516,13.49333 -28.37345,15.63592 l -10.83303,3.89558 v 21.23212 c 0,20.14978 -0.30727,21.576 -6.02763,27.97819 -4.11811,4.60898 -9.10087,7.339 -15.72881,8.6177 -12.2767,2.36852 -56.48515,2.18349 -69.36221,-0.2903 z m 69.01864,-154.90154 c 24.94519,-11.24667 37.93317,-33.42403 38.13724,-65.12043 0.0937,-14.55532 -0.86121,-19.4564 -5.91773,-30.37289 -7.77016,-16.7749 -23.70425,-31.89953 -40.08396,-38.04765 -24.52256,-9.20455 -63.21241,-1.91549 -79.2252,14.92581 -8.33601,8.76733 -16.73092,27.23674 -19.22718,42.30121 -1.81156,10.93237 -1.55921,16.20756 1.31759,27.54424 6.31039,24.86742 21.7387,42.34424 46.01325,52.1227 15.66196,6.30906 40.71408,4.885 58.98599,-3.35299 z"
     id="path817"
     inkscape:connector-curvature="0" />
  <path
     style="opacity:1;fill:#ff9900;fill-opacity:1;stroke:#ffffff;stroke-width:2.16949153;stroke-opacity:1;paint-order:stroke markers fill"
     d="m 476.04836,203.38582 c -22.3344,-12.30971 -25.77726,-18.85928 -17.38794,-33.07811 l 4.36889,-7.40472 -7.62313,-12.65946 c -4.19272,-6.9627 -7.62313,-13.4491 -7.62313,-14.41421 0,-0.96511 -4.69476,-1.75474 -10.4328,-1.75474 -17.20597,0 -18.85533,-2.46709 -18.85533,-28.20339 0,-25.736304 1.64936,-28.203393 18.85533,-28.203393 5.73804,0 10.4328,-0.789637 10.4328,-1.754746 0,-0.965111 3.43041,-7.451505 7.62313,-14.414206 l 7.62313,-12.659458 -4.36889,-7.40472 c -6.19099,-10.492936 -5.54788,-16.626401 2.44885,-23.355207 10.20667,-8.5883398 27.49556,-16.6854121 34.01035,-15.9283916 4.20714,0.4888715 7.12678,3.1545737 10.83171,9.8896096 l 5.07207,9.220339 h 17.03084 17.03083 l 5.07208,-9.220339 c 3.70492,-6.7350359 6.62456,-9.4007381 10.83171,-9.8896096 11.18811,-1.30006159 40.82809,17.5009016 40.82809,25.8977066 0,2.327905 -1.93062,8.016878 -4.29026,12.642162 l -4.29026,8.409607 7.5445,12.528879 c 4.14947,6.890884 7.54449,13.318517 7.54449,14.283628 0,0.965109 4.69477,1.754746 10.43281,1.754746 15.93409,0 18.59729,3.068223 19.58157,22.559643 1.39882,27.70112 -2.10966,33.84714 -19.32188,33.84714 -5.88087,0 -10.6925,0.78963 -10.6925,1.75474 0,0.96511 -3.4304,7.45151 -7.62313,14.41421 l -7.62312,12.65946 4.36889,7.40472 c 6.19098,10.49293 5.54787,16.6264 -2.44886,23.3552 -10.20666,8.58834 -27.49555,16.68541 -34.01034,15.92839 -4.20715,-0.48887 -7.12679,-3.15457 -10.83171,-9.88961 l -5.07208,-9.22033 H 527.9474 c -16.72341,0 -17.21646,0.15236 -20.39704,6.30293 -7.82451,15.13093 -13.76703,16.37624 -31.502,6.60153 z m 69.44854,-65.62905 c 24.98705,-13.21347 25.76028,-52.44075 1.26739,-64.297553 -34.24955,-16.579926 -67.72453,16.825822 -51.15653,51.050743 4.06346,8.39398 8.87809,12.12169 21.59902,16.72295 7.42327,2.68505 19.4287,1.20989 28.29012,-3.47614 z"
     id="path819"
     inkscape:connector-curvature="0" />
  <path
     style="opacity:1;fill:#ff9900;fill-opacity:1;stroke:#ffffff;stroke-width:2.16949153;stroke-opacity:1;paint-order:stroke markers fill"
     d="m 481.41017,505.27439 c -4.77288,-2.21481 -12.82712,-7.08085 -17.89831,-10.81342 -10.70683,-7.8806 -11.8155,-13.98026 -4.64873,-25.57634 l 4.5716,-7.39701 -5.50956,-8.04551 c -3.03026,-4.42502 -6.70859,-10.73025 -8.17408,-14.0116 -2.32072,-5.19632 -3.89196,-5.9661 -12.1776,-5.9661 -7.20766,0 -10.80359,-1.29051 -14.8382,-5.32512 -4.80075,-4.80074 -5.32512,-7.10317 -5.32512,-23.38168 0,-23.93101 2.50596,-27.69998 18.4175,-27.69998 10.2031,0 11.8512,-0.61102 13.16663,-4.88136 0.827,-2.68474 4.30681,-9.07512 7.73292,-14.20084 l 6.22929,-9.31949 -4.33249,-8.49239 c -6.70513,-13.14313 -5.74453,-17.76311 5.34997,-25.73058 11.67444,-8.38395 22.93563,-13.30755 30.43686,-13.30755 4.20841,0 6.8948,2.23169 11.13335,9.24889 l 5.58653,9.24888 h 16.92351 16.9235 l 5.58654,-9.24888 c 4.46287,-7.38859 6.82069,-9.24889 11.72244,-9.24889 7.47729,0 25.43879,8.72552 33.56413,16.30512 7.12926,6.65043 7.47658,11.87421 1.49689,22.51362 l -4.4692,7.95188 7.72344,12.82604 c 4.24789,7.05433 7.72344,13.56697 7.72344,14.47254 0,0.90556 5.58942,1.93926 12.42093,2.29711 16.1723,0.84715 18.34971,4.53104 17.48853,29.58825 -0.54962,15.99221 -1.21567,18.5711 -5.74323,22.23729 -3.13772,2.54077 -8.59983,4.18072 -14.10149,4.23384 -8.73757,0.0844 -9.20318,0.46882 -17.24737,14.24153 l -8.26738,14.15483 4.47077,7.57739 c 6.90852,11.70908 5.87749,17.1175 -4.74957,24.91464 -12.24494,8.98419 -27.50679,15.4662 -33.10619,14.06084 -2.48939,-0.6248 -6.73831,-5.07196 -9.44203,-9.88258 l -4.91585,-8.74657 h -17.14079 c -15.58354,0 -17.36945,0.44347 -19.65771,4.88135 -3.92843,7.61883 -11.06967,14.6488 -14.82747,14.59642 -1.88014,-0.0262 -7.32352,-1.85976 -12.0964,-4.07457 z m 60.74576,-67.23245 c 21.061,-9.72028 28.41972,-30.60766 18.21202,-51.69394 -10.80574,-22.32169 -45.898,-24.64829 -61.58392,-4.08299 -7.71569,10.11579 -9.44457,24.07779 -4.56396,36.85748 4.30526,11.27317 8.99723,15.90581 20.13123,19.8767 11.21041,3.99813 17.53992,3.78022 27.80463,-0.95725 z"
     id="path821"
     inkscape:connector-curvature="0" />
</svg>
